# xmcd
#
# Track frame offsets:
#	151
#	13367
#	30781
#	47003
#	63731
#	76889
#	94735
#	114615
#	132225
#	152692
#
# Disc length: 2278 seconds
#
# Revision: 0
# Processed by: cddbd v1.5.2PL0 Copyright (c) Steve Scherf et al.
# Submitted via: dBpowerAMP V4.0
#
DISCID=7908e40a
DTITLE=Daniel Carmel - The Fisherman From Galilee
DYEAR=2006
DGENRE=Gospel
TTITLE0=Awesome God
TTITLE1=God of Wonders 
TTITLE2=Your Glory
TTITLE3=Draw Me Close
TTITLE4=Amazing Grace
TTITLE5=Shout To The Lord
TTITLE6=How Great Thou Art
TTITLE7=Amen
TTITLE8=I Could Sing Of Your Love
TTITLE9=The Ruler Of The World
EXTD=
EXTT0=
EXTT1=
EXTT2=
EXTT3=
EXTT4=
EXTT5=
EXTT6=
EXTT7=
EXTT8=
EXTT9=
PLAYORDER=
